<svg enable-background="new 0 0 32 32" height="512" viewBox="0 0 32 32" width="512" xmlns="http://www.w3.org/2000/svg"><path d="m26 32h-20c-3.314 0-6-2.686-6-6v-20c0-3.314 2.686-6 6-6h20c3.314 0 6 2.686 6 6v20c0 3.314-2.686 6-6 6z" fill="#ffe6e2"/><path d="m26 32h-20c-3.314 0-6-2.686-6-6v-20c0-3.314 2.686-6 6-6h20c3.314 0 6 2.686 6 6v20c0 3.314-2.686 6-6 6z" fill="#ffe6e2"/><path d="m19 14c-2.757 0-5 2.243-5 5s2.243 5 5 5 5-2.243 5-5-2.243-5-5-5zm2.121 6.179c.26.26.26.682 0 .943-.13.13-.301.195-.471.195-.171 0-.341-.065-.471-.195l-1.179-1.179-1.179 1.179c-.13.13-.301.195-.471.195s-.341-.065-.471-.195c-.26-.26-.26-.682 0-.943l1.178-1.179-1.179-1.179c-.26-.26-.26-.682 0-.943s.682-.26.943 0l1.179 1.179 1.179-1.179c.26-.26.682-.26.943 0s.26.682 0 .943l-1.179 1.179z" fill="#fc573b"/><path d="m16 11.13c0 .153-.101.285-.24.33l-3.238 1.061-1.061 3.238c-.045.14-.178.241-.331.241-.15 0-.275-.094-.323-.223l-2.783-7.304c-.017-.038-.024-.08-.024-.125 0-.192.156-.348.348-.348.045 0 .087.007.125.024l7.304 2.783c.129.049.223.174.223.323z" fill="#fd907e"/></svg>