<svg enable-background="new 0 0 32 32" height="512" viewBox="0 0 32 32" width="512" xmlns="http://www.w3.org/2000/svg"><path d="m26 32h-20c-3.314 0-6-2.686-6-6v-20c0-3.314 2.686-6 6-6h20c3.314 0 6 2.686 6 6v20c0 3.314-2.686 6-6 6z" fill="#f5e6fe"/><g fill="#d9a4fc"><path d="m15.332 22.667c-.491 0-.982-.049-1.458-.145-.361-.073-.594-.424-.521-.785s.424-.596.785-.521c.39.078.792.118 1.194.118.368 0 .667.299.667.667s-.299.666-.667.666z"/><path d="m11.497 21.455c-.132 0-.266-.039-.383-.121-.737-.519-1.367-1.162-1.871-1.911-.206-.306-.125-.72.181-.925s.72-.124.925.181c.413.614.928 1.14 1.533 1.565.301.212.373.628.161.929-.13.183-.336.282-.546.282zm-2.728-4.27c-.317 0-.598-.226-.656-.549-.077-.428-.116-.867-.115-1.304 0-.46.043-.921.128-1.37.068-.362.415-.602.779-.531.362.068.6.417.531.779-.07.368-.105.745-.105 1.123 0 .358.032.717.094 1.067.065.362-.176.709-.538.774-.039.008-.079.011-.118.011zm1.062-4.954c-.13 0-.261-.038-.377-.117-.303-.208-.381-.623-.173-.927.51-.743 1.146-1.381 1.889-1.893.302-.209.718-.133.927.17s.133.718-.17.927c-.608.42-1.129.941-1.546 1.55-.129.189-.338.29-.55.29zm10.946-.079c-.209 0-.415-.098-.545-.282-.426-.603-.954-1.117-1.568-1.528-.306-.205-.388-.619-.183-.925s.618-.388.925-.183c.75.502 1.394 1.13 1.915 1.866.213.301.141.717-.159.929-.117.083-.252.123-.385.123zm-6.71-2.699c-.313 0-.593-.222-.654-.541-.069-.362.168-.711.529-.78.874-.168 1.797-.174 2.674-.02.363.064.605.41.541.772-.064.363-.41.606-.772.541-.717-.127-1.474-.121-2.19.016-.044.008-.086.012-.128.012z"/><path d="m21.998 16c-.368 0-.667-.299-.667-.667 0-.401-.04-.803-.119-1.194-.073-.361.161-.712.522-.785.359-.073.712.161.785.522.096.478.145.968.145 1.457.001.369-.297.667-.666.667z"/></g><path d="m23.863 20.416-6.289-6.289c-.082-.082-.191-.127-.308-.127-.24 0-.435.195-.435.435v9.13c0 .24.195.435.435.435.118 0 .228-.046.313-.133l2.611-2.708h3.366c.24 0 .435-.195.435-.435 0-.114-.047-.227-.128-.308z" fill="#be63f9"/></svg>